<svg width="196" height="41" viewBox="0 0 196 41" fill="none" xmlns="http://www.w3.org/2000/svg">
<g clip-path="url(#clip0_43_265)">
<path d="M71.1903 29.1504C66.2078 29.1504 62.9759 25.558 62.9759 21.8191V21.3557C62.9759 17.5535 66.2078 14.0245 71.1903 14.0245C76.1729 14.0245 79.4325 17.5535 79.4325 21.3557V21.8191C79.4325 25.558 76.2006 29.1504 71.1903 29.1504ZM76.767 21.3954C76.767 18.6704 74.7866 16.2465 71.1903 16.2465C67.594 16.2465 65.6454 18.6744 65.6454 21.3954V21.736C65.6454 24.4609 67.6257 26.9324 71.1903 26.9324C74.7549 26.9324 76.767 24.4609 76.767 21.736V21.3954Z" fill="#3499CD"/>
<path d="M14.8972 28.5998L13.0397 25.1144H4.77769L2.96766 28.5998H0.19519L7.79969 14.5315H9.99787L17.7291 28.5998H14.8972ZM8.83343 17.2763L5.77182 23.1935H12.002L8.83343 17.2763ZM29.726 29.1504C24.6761 29.1504 22.3314 26.4016 22.3314 22.7499V14.5315H24.9534V22.7895C24.9534 25.3877 26.6644 26.9324 29.9161 26.9324C33.255 26.9324 34.6254 25.3877 34.6254 22.7895V14.5315H37.2671V22.738C37.2671 26.2353 35.0491 29.1504 29.726 29.1504ZM51.9692 16.7297V28.6117H49.3274V16.7297H43.1804V14.5315H58.1161V16.7297H51.9692ZM102.963 28.5998V17.4664L102.266 18.6942L96.3723 28.5959H95.0851L89.255 18.6942L88.5579 17.4664V28.5998H85.9795V14.5315H89.6352L95.1801 24.1837L95.8376 25.3719L96.4911 24.1837L101.985 14.5315H105.597V28.5998H102.963ZM125.566 28.5998L123.705 25.1144H115.451L113.657 28.5998H110.884L118.489 14.5315H120.683L128.394 28.5998H125.566ZM119.503 17.2763L116.441 23.1935H122.671L119.503 17.2763ZM139.041 16.7297V28.6117H136.403V16.7297H130.256V14.5315H145.188V16.7297H139.041ZM158.412 16.7297V28.6117H155.771V16.7297H149.624V14.5315H164.563V16.7297H158.412ZM171.067 28.5998V15.8623C172.12 15.8623 172.544 15.292 172.544 14.5315H173.673V28.5998H171.067ZM194.344 18.5041C192.828 17.06 190.817 16.2508 188.723 16.2425C184.965 16.2425 182.85 18.8209 182.85 21.5023V21.7756C182.85 24.4372 184.985 26.9245 188.914 26.9245C190.969 26.8857 192.936 26.079 194.427 24.6629L196.011 26.3304C194.035 28.1723 191.425 29.1822 188.723 29.1504C183.4 29.1504 180.168 25.6848 180.168 21.8825V21.4191C180.168 17.6169 183.697 14.0245 188.85 14.0245C191.829 14.0245 194.534 15.2721 195.979 16.8327L194.344 18.5041ZM71.5159 19.2419L69.0971 22.9887C68.9501 23.2164 68.8994 23.4931 68.9564 23.758C69.0134 24.023 69.1733 24.2544 69.4009 24.4015L69.4044 24.4035C69.5172 24.4763 69.6432 24.5262 69.7752 24.5503C69.9072 24.5744 70.0426 24.5722 70.1738 24.544C70.305 24.5158 70.4294 24.4619 70.5398 24.3856C70.6502 24.3093 70.7444 24.212 70.8172 24.0993L73.2364 20.3525C73.3833 20.1249 73.4338 19.8482 73.3767 19.5833C73.3197 19.3185 73.1598 19.0871 72.9322 18.9401L72.9287 18.9378C72.8159 18.865 72.69 18.8151 72.5579 18.791C72.4259 18.7669 72.2905 18.769 72.1593 18.7972C72.0281 18.8255 71.9037 18.8793 71.7934 18.9556C71.683 19.0319 71.5887 19.1292 71.5159 19.2419Z" fill="#383F49"/>
</g>
<defs>
<clipPath id="clip0_43_265">
<rect width="195.805" height="40.3375" fill="white" transform="translate(0.19519 0.50647)"/>
</clipPath>
</defs>
</svg>
