<svg width="100" height="41" viewBox="0 0 100 41" fill="none" xmlns="http://www.w3.org/2000/svg">
<path d="M52.2643 14.8611C51.4466 14.1742 50.0402 13.8308 48.045 13.8308H43.564V27.6825H46.9166V23.3323H48.4211C50.2364 23.3323 51.5774 22.9235 52.4278 22.1222C53.3927 21.2227 53.867 20.0289 53.867 18.5243C53.867 16.9871 53.3273 15.7605 52.2643 14.8611ZM48.323 20.1924H46.9002V16.9544H48.1758C49.7294 16.9544 50.4981 17.494 50.4981 18.5897C50.5144 19.6527 49.7785 20.1924 48.323 20.1924ZM59.5908 13.8144H56.1074V27.6661H63.6466V24.5262H59.5908V13.8144ZM70.4988 13.8144L65.0039 27.6661H68.7653L69.4849 25.6546H74.2602L74.9143 27.6661H78.7248L73.279 13.8144H70.4988ZM70.4497 22.8581L71.8889 18.1155L73.3117 22.8581H70.4497Z" fill="#383F49"/>
<path d="M80.4748 27.6665H83.9746V13.8148H80.4748V27.6665ZM97.5319 16.415C97.0903 15.7772 96.5179 15.2376 95.8638 14.8124C94.8008 14.1418 93.3617 13.8148 91.5464 13.8148H86.9346V27.6665H92.315C94.2611 27.6665 95.8311 27.0287 97.0086 25.7531C98.186 24.4775 98.7748 22.793 98.7748 20.6834C98.7911 19.0153 98.3659 17.5925 97.5319 16.415ZM91.9389 24.5265H90.4507V16.9547H91.9716C93.0346 16.9547 93.8686 17.2818 94.441 17.9523C95.0134 18.6228 95.3078 19.5713 95.3078 20.7979C95.2914 23.2836 94.1793 24.5265 91.9389 24.5265ZM15.174 2.18719L3.8408 5.14724L0.717213 16.5459L4.64213 20.5525L0.668152 24.4938L3.61184 35.9415L14.896 39.0978L18.87 35.1565L22.7785 39.1632L34.1117 36.2032L37.2353 24.8045L33.3267 20.7979L37.3007 16.8566L34.357 5.4089L23.0729 2.25261L19.0989 6.19388L15.174 2.18719ZM8.22362 7.33865L14.1928 5.76869L16.8094 8.45071L12.9989 12.2284L8.22362 7.33865ZM21.323 8.49977L23.9724 5.86681L29.9088 7.5349L25.0517 12.3593C25.0681 12.3429 21.323 8.49977 21.323 8.49977ZM4.2987 15.6137L5.95044 9.61184L10.7258 14.5016L6.91532 18.2794L4.2987 15.6137ZM27.3085 14.6488L32.1656 9.82443L33.7192 15.859L31.0699 18.492C31.0536 18.492 27.3085 14.6488 27.3085 14.6488ZM15.2394 14.5507L19.0499 10.773L22.7949 14.6161L18.9844 18.3938L15.2394 14.5507ZM9.15579 20.5853L12.9662 16.8075L16.7113 20.6507L12.9008 24.4284L9.15579 20.5853ZM21.2249 20.6834L25.0354 16.9056L28.7804 20.7488L24.9699 24.5265C24.9699 24.5429 21.2249 20.6834 21.2249 20.6834ZM4.23329 25.4914L6.88261 22.8584L10.6276 26.7016L5.7869 31.526C5.77055 31.526 4.23329 25.4914 4.23329 25.4914ZM15.1413 26.7343L18.9517 22.9566L22.6968 26.7997L18.8863 30.5774L15.1413 26.7343ZM27.2104 26.8324L31.0209 23.0547L33.6375 25.7367L32.0021 31.7386C31.9857 31.7386 27.2104 26.8324 27.2104 26.8324ZM8.01102 33.8155L12.8518 28.9911L16.5968 32.8343L13.9475 35.4672L8.01102 33.8155ZM21.1268 32.8833L24.9372 29.1056L29.7126 33.9954L23.7434 35.5654L21.1268 32.8833Z" fill="#383F49"/>
</svg>
