<svg width="139" height="41" viewBox="0 0 139 41" fill="none" xmlns="http://www.w3.org/2000/svg">
<g clip-path="url(#clip0_43_257)">
<path d="M40.6441 14.0121H46.4578C49.6782 14.0121 51.3501 15.3326 51.3501 17.812V17.9355C51.396 18.662 51.1796 19.3809 50.7403 19.9614C50.301 20.542 49.6679 20.9455 48.9562 21.0988C49.8085 21.1738 50.5968 21.582 51.1499 22.2348C51.7031 22.8875 51.9764 23.7321 51.9106 24.5851V24.6706C51.9106 27.378 50.1341 28.8029 46.7238 28.8029H40.6441V14.0121ZM45.9163 20.0824C47.5313 20.0824 48.1677 19.5029 48.1677 18.1824V18.0969C48.1677 16.862 47.4648 16.3015 45.8974 16.3015H43.9119V20.1013L45.9163 20.0824ZM46.2013 26.4755C47.8543 26.4755 48.6047 25.7251 48.6047 24.3856V24.3001C48.6047 22.9322 47.8543 22.2387 46.0398 22.2387H43.9119V26.485L46.2013 26.4755Z" fill="#383F49"/>
<path d="M52.7847 25.7916C52.7847 23.2647 55.093 22.3148 58.4084 22.3148H59.6243V21.8873C59.6243 20.6048 59.2348 19.9019 57.8669 19.9019C57.6455 19.8756 57.421 19.8949 57.2073 19.9586C56.9936 20.0223 56.7953 20.1291 56.6244 20.2724C56.4535 20.4157 56.3138 20.5924 56.2138 20.7917C56.1138 20.991 56.0557 21.2087 56.043 21.4313H53.1931C53.3831 18.8664 55.4065 17.7265 58.0569 17.7265C60.7073 17.7265 62.5787 18.7999 62.5787 21.7353V28.784H59.6623V27.4825C59.2963 27.9982 58.8029 28.4102 58.2301 28.6782C57.6574 28.9463 57.0249 29.0613 56.3945 29.0119C54.4376 29.0119 52.7847 28.062 52.7847 25.7916ZM59.6243 25.0031V24.0532H58.4654C56.727 24.0532 55.72 24.4332 55.72 25.5826C55.72 26.3711 56.195 26.8935 57.2874 26.8935C58.6079 26.9315 59.6243 26.2001 59.6243 25.0031Z" fill="#383F49"/>
<path d="M63.8419 25.3926H66.6348C66.7583 26.3426 67.2333 26.9315 68.5347 26.9315C69.6936 26.9315 70.2351 26.4946 70.2351 25.7441C70.2351 24.9936 69.5891 24.6896 68.0407 24.4712C65.1909 24.0342 64.0509 23.2077 64.0509 21.0988C64.0509 18.9899 66.1218 17.7265 68.3257 17.7265C70.7291 17.7265 72.5245 18.6004 72.7905 21.0798H70.0451C69.8836 20.1869 69.3801 19.7784 68.3542 19.7784C67.3283 19.7784 66.8248 20.2344 66.8248 20.8898C66.8248 21.5453 67.3378 21.8398 68.9052 22.0678C71.6125 22.4573 73.104 23.1412 73.104 25.4591C73.104 27.777 71.4131 29.0119 68.5537 29.0119C65.6943 29.0119 63.9464 27.7295 63.8419 25.3926Z" fill="#383F49"/>
<path d="M73.8735 23.5117V23.3502C73.8374 22.6078 73.956 21.866 74.2217 21.1718C74.4873 20.4777 74.8942 19.8462 75.4167 19.3175C75.9391 18.7888 76.5657 18.3744 77.2566 18.1005C77.9476 17.8267 78.6879 17.6993 79.4307 17.7265C82.2236 17.7265 84.7029 19.3604 84.7029 23.2267V24.0532H76.9418C77.0178 25.8486 77.9963 26.903 79.6207 26.903C81.0076 26.903 81.6916 26.3045 81.8816 25.3926H84.7314C84.38 27.7295 82.518 29.0309 79.5637 29.0309C76.2484 29.0119 73.8735 26.9695 73.8735 23.5117ZM81.7866 22.2102C81.6916 20.5763 80.8556 19.8354 79.4307 19.8354C78.7892 19.8323 78.1715 20.0781 77.7074 20.5209C77.2432 20.9638 76.9688 21.5693 76.9418 22.2102H81.7866Z" fill="#383F49"/>
<path d="M85.4914 23.5116V23.3501C85.4552 22.6061 85.5743 21.8626 85.8411 21.1671C86.1079 20.4716 86.5165 19.8392 87.041 19.3102C87.5656 18.7812 88.1944 18.3672 88.8877 18.0946C89.5809 17.8219 90.3233 17.6965 91.0676 17.7264C93.5755 17.7264 95.8839 18.8188 96.1594 21.9252H93.3095C93.2906 21.6585 93.2182 21.3984 93.0968 21.1603C92.9753 20.9222 92.8073 20.7109 92.6026 20.539C92.3979 20.3671 92.1608 20.2381 91.9052 20.1596C91.6497 20.0812 91.381 20.0549 91.1151 20.0823C89.5667 20.0823 88.5313 21.2412 88.5313 23.3121V23.4736C88.5313 25.649 89.4812 26.7604 91.1816 26.7604C91.4709 26.7771 91.7607 26.736 92.034 26.6396C92.3073 26.5432 92.5586 26.3933 92.7734 26.1989C92.9883 26.0044 93.1623 25.7691 93.2853 25.5067C93.4083 25.2443 93.4779 24.9601 93.49 24.6705H96.1974C96.0359 27.2354 94.174 29.0118 91.0296 29.0118C87.8853 29.0118 85.4914 27.0454 85.4914 23.5116Z" fill="#383F49"/>
<path d="M96.891 25.7916C96.891 23.2647 99.1994 22.3147 102.505 22.3147H103.731V21.8873C103.731 20.6048 103.332 19.9019 101.973 19.9019C101.75 19.8728 101.524 19.89 101.308 19.9524C101.092 20.0148 100.891 20.1211 100.718 20.2647C100.545 20.4082 100.404 20.5859 100.303 20.7867C100.201 20.9874 100.143 21.2068 100.13 21.4313H97.2805C97.4705 18.8664 99.4939 17.7265 102.135 17.7265C104.776 17.7265 106.666 18.7999 106.666 21.7353V28.7839H103.75V27.4825C103.384 27.9982 102.89 28.4102 102.317 28.6782C101.745 28.9463 101.112 29.0612 100.482 29.0119C98.5819 29.0119 96.891 28.062 96.891 25.7916ZM103.731 25.0031V24.0532H102.591C100.852 24.0532 99.8359 24.4331 99.8359 25.5826C99.8359 26.371 100.32 26.8935 101.413 26.8935C102.752 26.9315 103.769 26.2001 103.769 25.0031H103.731Z" fill="#383F49"/>
<path d="M108.775 17.9354H111.767V19.5883C112.093 19.001 112.574 18.5138 113.156 18.1791C113.738 17.8443 114.401 17.6747 115.073 17.6884C115.714 17.6371 116.354 17.7944 116.899 18.1368C117.443 18.4792 117.862 18.9883 118.094 19.5883C118.493 18.9924 119.035 18.5063 119.671 18.1743C120.306 17.8424 121.015 17.6753 121.732 17.6884C123.736 17.6884 125.285 18.9519 125.285 21.8207V28.7459H122.312V22.1912C122.312 20.8043 121.694 20.1868 120.611 20.1868C120.323 20.1743 120.036 20.224 119.769 20.3327C119.501 20.4414 119.261 20.6064 119.063 20.8165C118.866 21.0267 118.716 21.2769 118.624 21.5502C118.532 21.8235 118.5 22.1134 118.531 22.4002V28.7839H115.548V22.1912C115.548 20.8043 114.911 20.1868 113.857 20.1868C113.568 20.1728 113.28 20.2216 113.011 20.3296C112.743 20.4377 112.501 20.6025 112.303 20.8128C112.104 21.0231 111.954 21.2738 111.861 21.5478C111.769 21.8218 111.737 22.1126 111.767 22.4002V28.7839H108.775V17.9354Z" fill="#383F49"/>
<path d="M127.337 17.9354H130.339V19.6358C130.697 19.0411 131.202 18.5491 131.806 18.2078C132.411 17.8666 133.093 17.6876 133.787 17.6884C136.438 17.6884 138.537 19.6548 138.537 23.2267V23.3977C138.537 26.9695 136.514 28.9739 133.787 28.9739C133.094 29.0023 132.406 28.8403 131.798 28.5054C131.19 28.1704 130.685 27.6754 130.339 27.074V32.4697H127.337V17.9354ZM135.459 23.2552C135.459 21.0608 134.386 19.9873 132.875 19.9873C131.365 19.9873 130.234 21.0798 130.234 23.2552V23.4167C130.234 25.5825 131.27 26.637 132.904 26.637C134.538 26.637 135.459 25.5351 135.459 23.4547V23.2552Z" fill="#383F49"/>
<path fill-rule="evenodd" clip-rule="evenodd" d="M18.4343 8.84914C10.0049 8.84914 5.60889 15.989 3.14756 22.9675C2.85003 23.8111 1.92496 24.2537 1.08138 23.9562C0.478006 23.7434 0.0797377 23.2095 0.0107139 22.6141C-0.016766 22.377 0.00793956 22.1302 0.0926641 21.89C2.59009 14.8092 7.69361 5.6098 18.4343 5.6098C24.0484 5.6098 28.0668 9.3239 30.6657 13.7859C33.2714 18.2597 34.6607 23.7992 34.9738 28.2718C34.9963 28.5933 34.9224 28.9142 34.7615 29.1934C33.2564 31.8061 30.7525 33.5087 27.8983 34.5515C25.0512 35.5918 21.7531 36.0167 18.4473 36.0178C15.6387 36.0616 12.8535 35.4995 10.2816 34.3698C7.70564 33.2382 5.40434 31.5638 3.53498 29.4611C3.13729 29.0137 3.01873 28.3836 3.22666 27.8223L3.22788 27.819L3.2302 27.8128L3.23812 27.7916L3.2668 27.716C3.29152 27.6513 3.32737 27.5585 3.37356 27.4416C3.46586 27.2079 3.59984 26.8772 3.76923 26.4813C4.10652 25.6931 4.59108 24.6309 5.17316 23.5584C5.74758 22.5 6.45394 21.3622 7.24829 20.4658C7.97243 19.6485 9.09801 18.653 10.5387 18.6432L10.5497 18.6431C11.5677 18.6431 12.4039 19.1093 13.0059 19.5573C13.6126 20.009 14.1637 20.583 14.6052 21.0503C14.6559 21.1039 14.7051 21.1561 14.753 21.2069C15.1643 21.6429 15.4788 21.9764 15.7776 22.2261C15.8112 22.2542 15.842 22.2789 15.8701 22.3007C15.9673 22.2014 16.0832 22.0713 16.2167 21.9058C16.6914 21.3173 17.2246 20.4883 17.7406 19.6008C18.2498 18.7249 18.7132 17.8427 19.0511 17.1753C19.2195 16.8428 19.3553 16.5663 19.4486 16.3739C19.4952 16.2777 19.5311 16.2028 19.5551 16.1525L19.5818 16.0961L19.5881 16.0827L19.5895 16.0798C19.9692 15.27 20.9337 14.9208 21.7436 15.3005C22.5536 15.6801 22.9024 16.6445 22.5227 17.4545L22.5192 17.4619L22.5108 17.4797L22.4797 17.5454C22.4527 17.602 22.4135 17.6838 22.3634 17.7871C22.2633 17.9937 22.1191 18.2871 21.9412 18.6386C21.5865 19.3392 21.0922 20.2808 20.541 21.2289C19.9967 22.1653 19.3667 23.1602 18.738 23.9396C18.4262 24.3261 18.0728 24.7127 17.6906 25.0167C17.3528 25.2855 16.7568 25.6823 15.9929 25.6823C14.9828 25.6823 14.1869 25.1183 13.7004 24.7118C13.2419 24.3287 12.7839 23.8417 12.3992 23.4327C12.3484 23.3787 12.2989 23.326 12.2508 23.2752C11.7947 22.7925 11.4219 22.4166 11.0716 22.1558C10.7645 21.9272 10.6078 21.8896 10.5628 21.8836C10.5628 21.8836 10.5595 21.8848 10.5567 21.8858C10.5072 21.9033 10.2097 22.0082 9.67276 22.6141C9.11609 23.2423 8.54654 24.1338 8.02021 25.1036C7.50153 26.0593 7.06048 27.024 6.74734 27.7557C6.707 27.85 6.66889 27.9402 6.63312 28.0257C8.0586 29.446 9.73683 30.5923 11.5844 31.404C13.7335 32.348 16.061 32.8169 18.4079 32.7787L18.4343 32.7785C21.4983 32.7785 24.3985 32.3814 26.7866 31.5089C28.9837 30.7062 30.6597 29.5363 31.7015 27.9831C31.3484 24.0028 30.0805 19.2175 27.8666 15.4163C25.5494 11.438 22.4052 8.84914 18.4343 8.84914ZM15.6039 22.5309C15.6039 22.5309 15.611 22.5255 15.6245 22.5185C15.6106 22.528 15.6039 22.5309 15.6039 22.5309Z" fill="#383F49"/>
</g>
<defs>
<clipPath id="clip0_43_257">
<rect width="138.66" height="40.3375" fill="white" transform="translate(0 0.50647)"/>
</clipPath>
</defs>
</svg>
