<svg width="144" height="41" viewBox="0 0 144 41" fill="none" xmlns="http://www.w3.org/2000/svg">
<g clip-path="url(#clip0_43_261)">
<path d="M3.48196 17.0231C3.48196 14.8042 2.35811 12.9709 0.257202 11.4312H5.14028C6.00107 12.0869 6.69852 12.9329 7.17806 13.9029C7.6576 14.873 7.90624 15.9409 7.90451 17.0231C7.90624 18.1052 7.6576 19.1731 7.17806 20.1432C6.69852 21.1132 6.00107 21.9592 5.14028 22.6149C6.72576 23.2761 7.62775 24.8897 7.62775 27.1993V31.5999H3.20632V27.1993C3.20632 24.9996 2.15642 23.4598 0.258323 22.616C2.35923 21.0752 3.48308 19.243 3.48308 17.0242L3.48196 17.0231ZM13.0643 17.0231C13.0643 14.8042 11.9405 12.9709 9.83959 11.4312H14.7238C15.5844 12.087 16.2816 12.933 16.761 13.9031C17.2403 14.8732 17.4888 15.941 17.4869 17.0231C17.4888 18.1051 17.2403 19.1729 16.761 20.143C16.2816 21.1131 15.5844 21.9591 14.7238 22.6149C16.3082 23.2761 17.2113 24.8897 17.2113 27.1993V31.5999H12.7887V27.1993C12.7887 24.9996 11.7377 23.4598 9.83959 22.616C11.9405 21.0752 13.0643 19.243 13.0643 17.0242V17.0231ZM22.649 17.0231C22.649 14.8042 21.5251 12.9709 19.4242 11.4312H24.3073C25.1681 12.0869 25.8655 12.9329 26.3451 13.9029C26.8246 14.873 27.0733 15.9409 27.0715 17.0231C27.0733 18.1052 26.8246 19.1731 26.3451 20.1432C25.8655 21.1132 25.1681 21.9592 24.3073 22.6149C25.8928 23.2761 26.7948 24.8897 26.7948 27.1993V31.5999H22.3722V27.1993C22.3722 24.9996 21.3223 23.4598 19.4242 22.616C21.5251 21.0752 22.649 19.243 22.649 17.0242V17.0231ZM40.5409 27.9356H37.1884V15.0978H45.4262C49.3882 15.0978 51.3412 16.5658 51.3412 18.9673C51.3412 20.5989 50.3832 21.8271 48.5961 22.4513C50.4381 22.7258 51.2673 23.6974 51.2673 25.44V27.9333H47.8767V25.5868C47.8767 24.1188 47.1394 23.5327 45.2043 23.5327H40.5431V27.9356H40.5409ZM45.2402 16.9681H40.5409V21.6635H45.2032C46.8985 21.6635 47.9484 20.7278 47.9484 19.2609C47.9484 17.812 46.9736 16.9681 45.2402 16.9681ZM57.1633 15.0978H53.8097V27.9356H57.1633V15.0978ZM67.446 23.7523H63.3551V27.9333H60.0004V15.0978H67.5188C71.4809 15.0978 73.5638 16.7485 73.5638 19.3898C73.5638 22.1207 71.445 23.7523 67.446 23.7523ZM67.372 16.9681H63.3551V21.882H67.3351C69.0673 21.882 70.1363 21.0023 70.1363 19.4077C70.1363 17.8489 69.0673 16.9681 67.372 16.9681ZM82.9994 23.7523H78.9085V27.9333H75.5538V15.0978H83.0723C87.0343 15.0978 89.1173 16.7485 89.1173 19.3898C89.1173 22.1207 86.9973 23.7523 82.9994 23.7523ZM82.9255 16.9681H78.9085V21.882H82.8885C84.6208 21.882 85.6897 21.0023 85.6897 19.4077C85.6897 17.8489 84.6208 16.9681 82.9255 16.9681ZM94.4609 15.0978V26.026H102.828V27.9356H91.1073V15.0978H94.4609ZM108.28 15.0978H104.926V27.9356H108.28V15.0978ZM113.33 19.3887V27.9356H111.118V15.0978H113.627L122.767 23.6425V15.0978H124.978V27.9356H122.472L113.33 19.3875V19.3887ZM135.926 16.6017C132.737 16.6017 130.655 18.6188 130.655 21.6254C130.655 24.595 132.645 26.4295 135.741 26.4295H135.961C137.012 26.4295 138.191 26.2087 139.279 25.8613V22.3953H133.862V20.5619H142.559V26.5942C140.754 27.5299 138.025 28.2639 135.815 28.2639H135.52C130.433 28.2639 127.153 25.5856 127.153 21.6982C127.153 17.8478 130.526 14.7684 135.704 14.7684H135.998C138.155 14.7684 140.624 15.4464 142.449 16.5098L141.49 18.0675C139.851 17.1699 137.896 16.6017 136.146 16.6017H135.926Z" fill="#383F49"/>
</g>
<defs>
<clipPath id="clip0_43_261">
<rect width="142.862" height="40.3375" fill="white" transform="translate(0.257202 0.50647)"/>
</clipPath>
</defs>
</svg>
