<svg width="98" height="41" viewBox="0 0 98 41" fill="none" xmlns="http://www.w3.org/2000/svg">
<g clip-path="url(#clip0_43_263)">
<path d="M44.6249 18.8348V29.999H42.0463V12.5304L53.5852 24.189V12.965H56.1652V30.4974L44.6249 18.8348ZM71.3545 12.2798C66.3064 12.2798 62.201 16.4201 62.201 21.5132C62.201 26.6039 66.3064 30.7439 71.3545 30.7439C76.4011 30.7439 80.5085 26.6039 80.5085 21.5132C80.5085 16.4201 76.4011 12.2798 71.3545 12.2798ZM71.3545 28.1219C67.7765 28.1219 64.8632 25.1566 64.8632 21.5132C64.8632 17.8693 67.7765 14.9045 71.3545 14.9045C74.9341 14.9045 77.8441 17.8693 77.8441 21.5132C77.8441 25.1567 74.9341 28.1219 71.3545 28.1219ZM26.8484 12.2798C21.8003 12.2798 17.6947 16.4201 17.6947 21.5132C17.6947 26.6039 21.8003 30.7439 26.8484 30.7439C31.8974 30.7439 36.0019 26.6039 36.0019 21.5132C36.0019 16.4201 31.8975 12.2798 26.8484 12.2798ZM26.8484 28.1219C23.2688 28.1219 20.3592 25.1566 20.3592 21.5132C20.3592 17.8693 23.2688 14.9045 26.8484 14.9045C30.4267 14.9045 33.3394 17.8693 33.3394 21.5132C33.3395 25.1567 30.4267 28.1219 26.8484 28.1219ZM6.46664 22.8102L6.4562 22.8058C4.73276 22.2537 3.57915 21.7097 2.71 21.0396C1.46758 20.0851 0.836243 18.8669 0.836243 17.4198C0.836243 16.0646 1.46106 14.7439 2.54985 13.7891C3.66223 12.8151 5.19503 12.2798 6.86449 12.2798C10.359 12.2798 12.356 14.6283 12.4398 14.729L10.3194 16.1739C9.82834 15.8038 8.53806 14.9731 6.86439 14.9731C4.76236 14.9731 3.5059 16.2169 3.5059 17.4198C3.5059 18.259 3.96214 19.1817 7.26344 20.2414L7.27618 20.2435C8.99511 20.794 10.1529 21.3396 11.0211 22.0078C12.2647 22.9644 12.8951 24.1826 12.8951 25.6299C12.8951 26.985 12.2701 28.3077 11.179 29.2606C10.0691 30.2327 8.53676 30.7678 6.86549 30.7678C3.37204 30.7678 1.37487 28.4215 1.29129 28.3203L3.41338 26.8755C3.90375 27.2462 5.19402 28.0767 6.86539 28.0767C8.96832 28.0767 10.2258 26.8354 10.2258 25.6299C10.2261 24.7907 9.77105 23.8678 6.46664 22.8102ZM90.9398 22.8102L90.9284 22.8058C89.2063 22.2537 88.0514 21.7097 87.184 21.0395C85.9424 20.0848 85.3083 18.8666 85.3083 17.4195C85.3083 16.0643 85.9349 14.7437 87.0245 13.7889C88.133 12.8151 89.6643 12.2798 91.3383 12.2798C94.8326 12.2798 96.8307 14.6283 96.9156 14.729L94.7925 16.1739C94.3025 15.8038 93.0123 14.9731 91.3383 14.9731C89.2346 14.9731 87.9777 16.2169 87.9777 17.4198C87.9777 18.259 88.4345 19.1817 91.7383 20.2414L91.7512 20.2435C93.4721 20.794 94.6259 21.3396 95.4956 22.0078C96.7358 22.9644 97.3679 24.1826 97.3679 25.6299C97.3679 26.985 96.7433 28.3077 95.6554 29.2606C94.5438 30.2327 93.0111 30.7678 91.3387 30.7678C87.8451 30.7678 85.8496 28.4215 85.7652 28.3203L87.8862 26.8755C88.378 27.2462 89.6646 28.0767 91.3387 28.0767C93.4437 28.0767 94.6977 26.8354 94.6977 25.6299C94.6973 24.7907 94.2426 23.8678 90.9398 22.8102Z" fill="#383F49"/>
</g>
<defs>
<clipPath id="clip0_43_263">
<rect width="96.6419" height="40.3375" fill="white" transform="translate(0.836243 0.50647)"/>
</clipPath>
</defs>
</svg>
