<svg width="25" height="26" viewBox="0 0 25 26" fill="none" xmlns="http://www.w3.org/2000/svg">
<path d="M19.7917 9.38127C19.7917 8.42371 19.6031 7.47553 19.2367 6.59087C18.8702 5.7062 18.3331 4.90237 17.656 4.22528C16.9789 3.54819 16.1751 3.01109 15.2904 2.64464C14.4058 2.2782 13.4576 2.0896 12.5 2.0896C11.5425 2.0896 10.5943 2.2782 9.70964 2.64464C8.82497 3.01109 8.02115 3.54819 7.34405 4.22528C6.66696 4.90237 6.12986 5.7062 5.76342 6.59087C5.39698 7.47553 5.20837 8.42371 5.20837 9.38127C5.20837 10.8261 5.63442 12.1698 6.35942 13.3031H6.35108L12.5 22.9229L18.649 13.3031H18.6417C19.3926 12.1329 19.7918 10.7717 19.7917 9.38127ZM12.5 12.5063C11.6712 12.5063 10.8764 12.177 10.2903 11.591C9.70428 11.0049 9.37504 10.2101 9.37504 9.38127C9.37504 8.55247 9.70428 7.75761 10.2903 7.17156C10.8764 6.58551 11.6712 6.25627 12.5 6.25627C13.3288 6.25627 14.1237 6.58551 14.7097 7.17156C15.2958 7.75761 15.625 8.55247 15.625 9.38127C15.625 10.2101 15.2958 11.0049 14.7097 11.591C14.1237 12.177 13.3288 12.5063 12.5 12.5063Z" fill="#3B4144"/>
</svg>
