<svg width="25" height="26" viewBox="0 0 25 26" fill="none" xmlns="http://www.w3.org/2000/svg">
<path d="M6.89583 11.2459C8.39583 14.1938 10.8125 16.6001 13.7604 18.1105L16.0521 15.8188C16.3333 15.5376 16.75 15.4438 17.1146 15.5688C18.2812 15.9543 19.5417 16.1626 20.8333 16.1626C21.4062 16.1626 21.875 16.6313 21.875 17.2043V20.8397C21.875 21.4126 21.4062 21.8813 20.8333 21.8813C11.0521 21.8813 3.125 13.9543 3.125 4.17301C3.125 3.6001 3.59375 3.13135 4.16667 3.13135H7.8125C8.38542 3.13135 8.85417 3.6001 8.85417 4.17301C8.85417 5.4751 9.0625 6.7251 9.44792 7.89176C9.5625 8.25635 9.47917 8.6626 9.1875 8.95426L6.89583 11.2459Z" fill="#3B4144"/>
</svg>
