<svg width="25" height="26" viewBox="0 0 25 26" fill="none" xmlns="http://www.w3.org/2000/svg">
<path d="M3.12496 5.21468V4.69385C2.98683 4.69385 2.85435 4.74872 2.75667 4.8464C2.659 4.94407 2.60413 5.07655 2.60413 5.21468H3.12496ZM21.875 5.21468H22.3958C22.3958 5.07655 22.3409 4.94407 22.2432 4.8464C22.1456 4.74872 22.0131 4.69385 21.875 4.69385V5.21468ZM3.12496 5.73551H21.875V4.69385H3.12496V5.73551ZM21.3541 5.21468V17.7147H22.3958V5.21468H21.3541ZM19.7916 19.2772H5.20829V20.3188H19.7916V19.2772ZM3.64579 17.7147V5.21468H2.60413V17.7147H3.64579ZM5.20829 19.2772C4.79389 19.2772 4.39646 19.1126 4.10344 18.8195C3.81041 18.5265 3.64579 18.1291 3.64579 17.7147H2.60413C2.60413 18.4053 2.87849 19.0677 3.36687 19.5561C3.85524 20.0445 4.51762 20.3188 5.20829 20.3188V19.2772ZM21.3541 17.7147C21.3541 18.1291 21.1895 18.5265 20.8965 18.8195C20.6035 19.1126 20.206 19.2772 19.7916 19.2772V20.3188C20.4823 20.3188 21.1447 20.0445 21.633 19.5561C22.1214 19.0677 22.3958 18.4053 22.3958 17.7147H21.3541Z" fill="#3B4144"/>
<path d="M3.125 5.2146L12.5 14.5896L21.875 5.2146" stroke="#3B4144" stroke-width="1.04167" stroke-linecap="round" stroke-linejoin="round"/>
</svg>
